<?xml version="1.0" encoding="utf-8"?>
<!-- Generator: Adobe Illustrator 28.5.0, SVG Export Plug-In . SVG Version: 9.03 Build 54727)  -->
<svg version="1.0" id="katman_1" xmlns="http://www.w3.org/2000/svg" xmlns:xlink="http://www.w3.org/1999/xlink" x="0px" y="0px"
	 viewBox="0 0 749 205" style="enable-background:new 0 0 749 205;" xml:space="preserve">
<style type="text/css">
	.st0{fill:#5E5E5E;}
	.st1{fill:#FF9100;}
	.st2{fill:#FFC400;}
	.st3{fill:#DD2C00;}
</style>
<path class="st0" d="M707.39,161.43c-7.23,0-13.78-1.69-19.62-5.06c-5.75-3.37-10.26-8.03-13.53-13.97
	c-3.27-6.05-4.91-12.78-4.91-20.22c0-7.14,1.54-13.68,4.61-19.62c3.17-6.04,7.58-10.8,13.23-14.27c5.65-3.57,12.09-5.35,19.32-5.35
	c7.43,0,13.87,1.64,19.33,4.91c5.55,3.27,9.76,7.83,12.64,13.68c2.87,5.75,4.31,12.39,4.31,19.92c0,0.89-0.05,1.78-0.15,2.68
	c-0.1,0.89-0.15,1.39-0.15,1.49h-56.78c0.5,6.74,2.92,11.94,7.28,15.61c4.36,3.67,9.32,5.5,14.86,5.5c8.52,0,15.06-3.96,19.62-11.89
	l13.97,6.69c-3.27,6.04-7.83,10.9-13.68,14.57C722.01,159.65,715.22,161.43,707.39,161.43z M726.12,113.12
	c-0.2-2.38-0.99-4.81-2.38-7.28c-1.39-2.48-3.57-4.56-6.54-6.24c-2.87-1.78-6.49-2.68-10.85-2.68c-4.86,0-9.07,1.49-12.64,4.46
	c-3.47,2.97-5.85,6.89-7.14,11.74H726.12z"/>
<path class="st0" d="M633.45,161.43c-8.42,0-15.41-1.93-20.96-5.8c-5.45-3.96-9.32-8.92-11.59-14.87l14.57-6.24
	c1.68,4.06,4.11,7.13,7.28,9.22c3.27,2.08,6.84,3.12,10.7,3.12c4.06,0,7.38-0.74,9.96-2.23c2.58-1.59,3.86-3.62,3.86-6.09
	c0-2.38-1.04-4.31-3.12-5.8c-2.08-1.59-5.5-2.97-10.26-4.16l-10.11-2.38c-5.55-1.29-10.35-3.67-14.42-7.14
	c-3.96-3.57-5.95-8.18-5.95-13.82c0-6.84,2.82-12.24,8.47-16.2c5.65-4.06,12.58-6.09,20.81-6.09c6.84,0,12.88,1.44,18.14,4.31
	c5.35,2.87,9.22,7.04,11.59,12.49l-14.42,6.09c-1.39-3.07-3.52-5.35-6.39-6.84c-2.87-1.49-5.99-2.23-9.36-2.23
	c-3.27,0-6.15,0.74-8.62,2.23c-2.48,1.39-3.72,3.27-3.72,5.65c0,2.08,0.84,3.76,2.53,5.05c1.78,1.29,4.56,2.38,8.32,3.27l11,2.68
	c7.43,1.88,12.98,4.76,16.65,8.62c3.67,3.77,5.5,8.32,5.5,13.68c0,4.36-1.34,8.32-4.01,11.89c-2.58,3.57-6.19,6.39-10.85,8.47
	C644.5,160.39,639.3,161.43,633.45,161.43z"/>
<path class="st0" d="M555.22,161.43c-5.25,0-10.01-1.04-14.27-3.12c-4.16-2.18-7.48-5.15-9.96-8.92c-2.38-3.87-3.57-8.23-3.57-13.08
	c0-7.73,2.87-13.82,8.62-18.28c5.85-4.46,13.23-6.69,22.15-6.69c7.83,0,14.52,1.34,20.07,4.01v-3.12c0-4.46-1.78-8.13-5.35-11
	c-3.47-2.97-7.68-4.46-12.64-4.46c-7.53,0-13.58,3.07-18.13,9.22l-12.49-8.62c3.47-4.66,7.78-8.23,12.93-10.7
	c5.25-2.48,11.15-3.72,17.69-3.72c10.8,0,19.13,2.73,24.97,8.18c5.95,5.35,8.92,12.93,8.92,22.74v45.19h-15.91v-9.07h-0.89
	c-2.38,3.37-5.4,6.14-9.07,8.32C564.64,160.39,560.28,161.43,555.22,161.43z M557.9,147.91c3.67,0,7.04-0.89,10.11-2.68
	c3.17-1.88,5.65-4.31,7.43-7.28c1.88-3.07,2.82-6.34,2.82-9.81c-5.25-2.87-10.85-4.31-16.8-4.31c-5.45,0-9.71,1.19-12.78,3.57
	c-3.07,2.38-4.61,5.4-4.61,9.07c0,3.37,1.34,6.14,4.01,8.32C550.86,146.87,554.13,147.91,557.9,147.91z"/>
<path class="st0" d="M486.62,161.43c-5.35,0-10.16-1.14-14.42-3.42c-4.16-2.28-7.28-5.15-9.36-8.62h-0.89v9.66h-15.46V52.62h16.35
	v31.96l-0.89,10.26h0.89c2.08-3.37,5.2-6.19,9.36-8.47c4.26-2.28,9.07-3.42,14.42-3.42c6.34,0,12.19,1.68,17.54,5.05
	c5.45,3.37,9.76,8.08,12.93,14.12c3.27,5.95,4.9,12.64,4.9,20.07c0,7.43-1.63,14.12-4.9,20.07c-3.17,5.95-7.48,10.65-12.93,14.12
	C498.81,159.75,492.96,161.43,486.62,161.43z M483.79,146.42c3.86,0,7.43-0.99,10.7-2.97c3.37-1.98,6.04-4.81,8.03-8.47
	c2.08-3.77,3.12-8.03,3.12-12.78c0-4.76-1.04-8.97-3.12-12.64c-1.98-3.77-4.66-6.64-8.03-8.62c-3.27-1.98-6.84-2.97-10.7-2.97
	s-7.48,0.99-10.85,2.97c-3.27,1.98-5.95,4.81-8.03,8.47c-1.98,3.67-2.97,7.93-2.97,12.78c0,4.86,0.99,9.12,2.97,12.78
	c2.08,3.67,4.76,6.49,8.03,8.47C476.31,145.43,479.93,146.42,483.79,146.42z"/>
<path class="st0" d="M401.36,161.43c-7.23,0-13.77-1.69-19.62-5.06c-5.75-3.37-10.26-8.03-13.53-13.97
	c-3.27-6.05-4.9-12.78-4.9-20.22c0-7.14,1.54-13.68,4.61-19.62c3.17-6.04,7.58-10.8,13.23-14.27c5.65-3.57,12.09-5.35,19.32-5.35
	c7.43,0,13.87,1.64,19.32,4.91c5.55,3.27,9.76,7.83,12.64,13.68c2.87,5.75,4.31,12.39,4.31,19.92c0,0.89-0.05,1.78-0.15,2.68
	c-0.1,0.89-0.15,1.39-0.15,1.49h-56.78c0.5,6.74,2.92,11.94,7.28,15.61c4.36,3.67,9.31,5.5,14.86,5.5c8.52,0,15.06-3.96,19.62-11.89
	l13.97,6.69c-3.27,6.04-7.83,10.9-13.67,14.57C415.98,159.65,409.19,161.43,401.36,161.43z M420.1,113.12
	c-0.2-2.38-0.99-4.81-2.38-7.28c-1.39-2.48-3.57-4.56-6.54-6.24c-2.87-1.78-6.49-2.68-10.85-2.68c-4.86,0-9.07,1.49-12.64,4.46
	c-3.47,2.97-5.85,6.89-7.14,11.74H420.1z"/>
<path class="st0" d="M317.93,85.33h15.46v11h0.89c1.59-3.77,4.46-6.89,8.62-9.36c4.16-2.58,8.42-3.86,12.78-3.86
	c3.57,0,6.49,0.5,8.77,1.49v17.1c-3.37-1.69-7.14-2.53-11.3-2.53c-5.35,0-9.86,2.08-13.53,6.24c-3.57,4.06-5.35,9.07-5.35,15.01
	v38.65h-16.35V85.33z"/>
<path class="st0" d="M294.59,72.84c-3.07,0-5.7-1.04-7.88-3.12c-2.08-2.18-3.12-4.81-3.12-7.88c0-3.07,1.04-5.65,3.12-7.73
	c2.18-2.18,4.81-3.27,7.88-3.27s5.65,1.09,7.73,3.27c2.18,2.08,3.27,4.66,3.27,7.73c0,3.07-1.09,5.7-3.27,7.88
	C300.24,71.8,297.67,72.84,294.59,72.84z M286.42,85.32h16.35v73.73h-16.35V85.32z"/>
<path class="st0" d="M211.94,52.62h64.66v15.91h-48.01v30.62h43.26v15.76h-43.26v44.15h-16.65V52.62z"/>
<path class="st1" d="M51.23,191.11c8.18,3.29,17.05,5.24,26.36,5.57c12.6,0.44,24.59-2.17,35.3-7.12
	c-12.85-5.05-24.49-12.43-34.42-21.61C72.04,178.26,62.51,186.4,51.23,191.11z"/>
<path class="st2" d="M78.47,167.96c-22.67-20.97-36.42-51.31-35.26-84.6c0.04-1.08,0.09-2.16,0.16-3.24
	c-4.06-1.05-8.3-1.69-12.66-1.84c-6.24-0.22-12.29,0.56-18,2.16c-6.05,10.6-9.7,22.76-10.16,35.79c-1.17,33.62,19.17,63,48.67,74.88
	C62.51,186.4,72.03,178.27,78.47,167.96z"/>
<path class="st1" d="M78.47,167.95c5.27-8.43,8.47-18.32,8.84-28.98c0.98-28.03-17.86-52.13-43.94-58.86
	c-0.07,1.08-0.12,2.16-0.16,3.24C42.05,116.64,55.8,146.99,78.47,167.95z"/>
<path class="st3" d="M84.39,1.34c-14.85,11.9-26.58,27.59-33.67,45.66c-4.06,10.35-6.61,21.47-7.36,33.13
	c26.08,6.73,44.92,30.84,43.94,58.86c-0.37,10.65-3.58,20.53-8.84,28.98c9.93,9.19,21.57,16.56,34.42,21.61
	c25.79-11.92,44.09-37.57,45.15-67.92c0.69-19.66-6.87-37.18-17.54-51.97C129.21,54.04,84.39,1.34,84.39,1.34z"/>
</svg>
