<?xml version="1.0" encoding="utf-8"?>
<!-- Generator: Adobe Illustrator 26.0.3, SVG Export Plug-In . SVG Version: 6.00 Build 0)  -->
<svg version="1.0" id="Layer_1" xmlns="http://www.w3.org/2000/svg" xmlns:xlink="http://www.w3.org/1999/xlink" x="0px" y="0px"
	 viewBox="0 0 924 673.7" style="enable-background:new 0 0 924 673.7;" xml:space="preserve">
<style type="text/css">
	.st0{opacity:0.54;}
	.st1{clip-path:url(#SVGID_00000088839459050514051480000009110035366425610147_);}
	.st2{fill:#54C5F8;}
	.st3{clip-path:url(#SVGID_00000086688473792180008080000004117937440635714745_);}
	.st4{clip-path:url(#SVGID_00000009559453059401950760000006249429697878139327_);}
	.st5{fill:#01579B;}
	.st6{clip-path:url(#SVGID_00000073684722124418836020000010930318347737460647_);}
	.st7{fill:url(#SVGID_00000072258653698258171330000007952380408772065940_);}
	.st8{clip-path:url(#SVGID_00000155864812834401640170000016494662896833482122_);}
	.st9{fill:#29B6F6;}
	.st10{fill:url(#SVGID_00000019655330537300518520000014268321234770800527_);}
</style>
<g class="st0">
	<path d="M345.1,275.5h71.4v14h-56.9v42.2H411v13.9h-51.4v53.5h-14.5V275.5z"/>
	<path d="M433.8,275.5h14.7v123.5h-14.7V275.5z"/>
	<path d="M477.9,392.4c-5.6-6.2-8.4-14.9-8.4-26.1v-55.4h14.7V364c0,8.4,1.9,14.5,5.7,18.5s9,5.8,15.3,5.8c4.7,0.1,9.3-1.3,13.2-3.9
		c3.8-2.6,6.9-6.2,9-10.3c2.1-4.2,3.2-8.8,3.1-13.4v-49.7h14.8v88h-14v-12.8h-0.7c-2.8,4.7-6.7,8.5-11.5,11
		c-5.1,2.9-10.9,4.5-16.9,4.5C491.5,401.8,483.5,398.7,477.9,392.4z"/>
	<path d="M591.7,400c-2.9-1.1-5.5-2.7-7.7-4.8c-2.3-2.1-4.1-4.8-5.2-7.7c-1.2-3.4-1.8-7.1-1.8-10.7v-52.6h-15.3v-13.3h15.4v-24.9
		h14.7v24.9h21.5v13.3h-21.3v49c0,4.9,1,8.6,2.7,10.9c2.2,2.6,5.3,3.9,9.5,3.9c3.4,0,6.8-1.1,9.6-3v14.3c-1.7,0.8-3.5,1.4-5.3,1.8
		c-2.2,0.4-4.5,0.6-6.8,0.5C598.3,401.7,594.9,401.2,591.7,400z"/>
	<path d="M653.9,400c-2.9-1.1-5.5-2.7-7.7-4.8c-2.3-2.1-4.1-4.8-5.2-7.7c-1.2-3.4-1.8-7.1-1.8-10.7v-52.6H624v-13.3h15.3v-24.9H654
		v24.9h21.3v13.3h-21.3v49c0,4.9,1,8.6,2.7,10.9c2.2,2.6,5.3,3.9,9.5,3.9c3.4,0,6.8-1.1,9.6-3v14.3c-1.7,0.8-3.5,1.4-5.3,1.8
		c-2.2,0.4-4.5,0.6-6.8,0.5C660.5,401.7,657.1,401.2,653.9,400z"/>
	<path d="M705.9,395.7c-6.6-4-12.1-9.8-15.6-16.7c-3.8-7.4-5.7-15.6-5.6-23.9c-0.1-8.1,1.7-16.2,5.3-23.5c3.4-6.9,8.5-12.8,15-17.1
		c6.7-4.3,14.5-6.5,22.4-6.4c8.5,0,16.2,1.9,22.4,5.8c6.3,3.8,11.3,9.3,14.5,15.9c3.5,7.2,5.2,15.2,5,23.2c0.1,1.5-0.1,3-0.5,4.5
		h-69.5c0.4,6.7,1.9,12.4,4.9,16.9c2.6,4.4,6.4,8,11,10.3c4.3,2.2,9,3.4,13.8,3.4c11.3,0,20-5.3,26.1-15.9l12.4,6
		c-3.6,6.9-8.9,12.7-15.4,16.8c-6.5,4.1-14.4,6.2-23.5,6.2C720.6,401.8,712.7,399.9,705.9,395.7z M753.9,345.7
		c-0.3-3.8-1.3-7.6-3.1-11c-2-3.8-5-7.1-8.7-9.4c-3.9-2.6-9-3.8-14.9-3.8c-6.5-0.2-12.8,2.2-17.5,6.7c-4.9,4.7-8.2,10.8-9.4,17.5
		H753.9z"/>
	<path d="M786.5,311.1h14v14.1h0.7c1.8-4.9,5-8.8,10.1-12.1c4.5-3.2,9.9-4.9,15.5-4.9c3.5-0.1,7,0.6,10.3,1.9v15.7
		c-3.8-1.9-8.1-2.8-12.4-2.7c-4.2,0-8.2,1.3-11.6,3.7c-3.6,2.5-6.5,5.9-8.6,9.8c-2.1,4.1-3.2,8.6-3.1,13.2v49.3h-14.7v-88
		L786.5,311.1z"/>
</g>
<g>
	<defs>
		<path id="SVGID_1_" d="M258,328.7l-57,57l57,57h-65.2l-24.4-24.4l0,0l-32.6-32.6l57-57L258,328.7z M192.9,231L87,336.8l32.6,32.6
			L258,231L192.9,231z"/>
	</defs>
	<clipPath id="SVGID_00000132050425053212750090000010027989651226151055_">
		<use xlink:href="#SVGID_1_"  style="overflow:visible;"/>
	</clipPath>
	<g style="clip-path:url(#SVGID_00000132050425053212750090000010027989651226151055_);">
		
			<image style="overflow:visible;opacity:0.2;enable-background:new    ;" width="128" height="100" xlink:href="8A68C148.png"  transform="matrix(1.19 0 0 1.19 125.65 318.79)">
		</image>
		<polygon class="st2" points="258,328.7 258,328.7 258,328.7 192.8,328.7 135.9,385.7 168.4,418.2 		"/>
	</g>
</g>
<g>
	<defs>
		<path id="SVGID_00000026857769701209978080000004131221983401910431_" d="M258,328.7l-57,57l57,57h-65.2l-24.4-24.4l0,0
			l-32.6-32.6l57-57L258,328.7z M192.9,231L87,336.8l32.6,32.6L258,231L192.9,231z"/>
	</defs>
	<clipPath id="SVGID_00000178906258272256068020000007658790161751343245_">
		<use xlink:href="#SVGID_00000026857769701209978080000004131221983401910431_"  style="overflow:visible;"/>
	</clipPath>
	<g style="clip-path:url(#SVGID_00000178906258272256068020000007658790161751343245_);">
		<polygon class="st2" points="119.6,369.4 87,336.8 192.8,231 258,231 		"/>
	</g>
</g>
<g>
	<defs>
		<path id="SVGID_00000008133224207514697180000006841381771057526201_" d="M258,328.7l-57,57l57,57h-65.2l-24.4-24.4l0,0
			l-32.6-32.6l57-57L258,328.7z M192.9,231L87,336.8l32.6,32.6L258,231L192.9,231z"/>
	</defs>
	<clipPath id="SVGID_00000033348615028598260720000016329975192854997927_">
		<use xlink:href="#SVGID_00000008133224207514697180000006841381771057526201_"  style="overflow:visible;"/>
	</clipPath>
	<g style="clip-path:url(#SVGID_00000033348615028598260720000016329975192854997927_);">
		<polygon class="st5" points="168.4,418.2 192.8,442.7 258,442.7 258,442.7 201,385.7 		"/>
	</g>
</g>
<g>
	<defs>
		<path id="SVGID_00000011742842561980388300000006148033826757180323_" d="M258,328.7l-57,57l57,57h-65.2l-24.4-24.4l0,0
			l-32.6-32.6l57-57L258,328.7z M192.9,231L87,336.8l32.6,32.6L258,231L192.9,231z"/>
	</defs>
	<clipPath id="SVGID_00000178907598719520280520000010016435135657012390_">
		<use xlink:href="#SVGID_00000011742842561980388300000006148033826757180323_"  style="overflow:visible;"/>
	</clipPath>
	<g style="clip-path:url(#SVGID_00000178907598719520280520000010016435135657012390_);">
		
			<linearGradient id="SVGID_00000136412638372659312420000014395931136025282225_" gradientUnits="userSpaceOnUse" x1="6879.6152" y1="-5111.7852" x2="6976.625" y2="-5014.7749" gradientTransform="matrix(0.25 0 0 -0.25 -1542 -853.42)">
			<stop  offset="0" style="stop-color:#1A237E;stop-opacity:0.4"/>
			<stop  offset="1" style="stop-color:#1A237E;stop-opacity:0"/>
		</linearGradient>
		<polygon style="fill:url(#SVGID_00000136412638372659312420000014395931136025282225_);" points="168.4,418.2 216.7,401.5 
			201,385.7 		"/>
	</g>
</g>
<g>
	<defs>
		<path id="SVGID_00000176752457514797813110000004816918955562352802_" d="M258,328.7l-57,57l57,57h-65.2l-24.4-24.4l0,0
			l-32.6-32.6l57-57L258,328.7z M192.9,231L87,336.8l32.6,32.6L258,231L192.9,231z"/>
	</defs>
	<clipPath id="SVGID_00000081618074511732051530000001037524023502897293_">
		<use xlink:href="#SVGID_00000176752457514797813110000004816918955562352802_"  style="overflow:visible;"/>
	</clipPath>
	<g style="clip-path:url(#SVGID_00000081618074511732051530000001037524023502897293_);">
		
			<rect x="145.4" y="362.7" transform="matrix(0.7071 -0.7071 0.7071 0.7071 -223.3882 232.0364)" class="st9" width="46" height="46"/>
	</g>
</g>
<radialGradient id="SVGID_00000052792079091650624850000000178509230573901233_" cx="6535.2402" cy="-4395.4102" r="1035.79" gradientTransform="matrix(0.25 0 0 -0.25 -1542 -853.42)" gradientUnits="userSpaceOnUse">
	<stop  offset="0" style="stop-color:#FFFFFF;stop-opacity:0.1"/>
	<stop  offset="1" style="stop-color:#FFFFFF;stop-opacity:0"/>
</radialGradient>
<path style="fill:url(#SVGID_00000052792079091650624850000000178509230573901233_);" d="M258,328.7l-57,57l57,57h-65.2l-24.4-24.4
	l0,0l-32.6-32.6l57-57L258,328.7z M192.9,231L87,336.8l32.6,32.6L258,231L192.9,231z"/>
</svg>
